HIERARCHY
ROOT RootJoint
{
    OFFSET   0.000000   0.000000   0.000000
    CHANNELS 6 Xposition Yposition Zposition Xrotation Yrotation Zrotation
    JOINT lHip
    {
        OFFSET   0.100000  -0.051395   0.000000
        CHANNELS 3 Xrotation Yrotation Zrotation
        JOINT lKnee
        {
            OFFSET   0.000000  -0.410000   0.000000
            CHANNELS 3 Xrotation Yrotation Zrotation
            JOINT lAnkle
            {
                OFFSET   0.000000  -0.390000   0.000000
                CHANNELS 3 Xrotation Yrotation Zrotation
                JOINT lToeJoint
                {
                    OFFSET   0.000000  -0.050000   0.130000
                    CHANNELS 3 Xrotation Yrotation Zrotation
                    End Site
                    {
                        OFFSET   0.010000   0.002000   0.060000
                    }
                }
            }
        }
    }
    JOINT rHip
    {
        OFFSET  -0.100000  -0.051395   0.000000
        CHANNELS 3 Xrotation Yrotation Zrotation
        JOINT rKnee
        {
            OFFSET   0.000000  -0.410000   0.000000
            CHANNELS 3 Xrotation Yrotation Zrotation
            JOINT rAnkle
            {
                OFFSET   0.000000  -0.390000   0.000000
                CHANNELS 3 Xrotation Yrotation Zrotation
                JOINT rToeJoint
                {
                    OFFSET   0.000000  -0.050000   0.130000
                    CHANNELS 3 Xrotation Yrotation Zrotation
                    End Site
                    {
                        OFFSET  -0.010000   0.002000   0.060000
                    }
                }
            }
        }
    }
    JOINT pelvis_lowerback
    {
        OFFSET   0.000000   0.093605   0.000000
        CHANNELS 3 Xrotation Yrotation Zrotation
        JOINT lowerback_torso
        {
            OFFSET   0.000000   0.100000   0.000000
            CHANNELS 3 Xrotation Yrotation Zrotation
            JOINT torso_head
            {
                OFFSET   0.000000   0.282350   0.000000
                CHANNELS 3 Xrotation Yrotation Zrotation
                End Site
                {
                    OFFSET   0.000000   0.192650   0.000000
                }
            }
            JOINT lTorso_Clavicle
            {
                OFFSET   0.001000   0.157500   0.000000
                CHANNELS 3 Xrotation Yrotation Zrotation
                JOINT lShoulder
                {
                    OFFSET   0.117647   0.000000   0.000000
                    CHANNELS 3 Xrotation Yrotation Zrotation
                    JOINT lElbow
                    {
                        OFFSET   0.245000   0.000000   0.000000
                        CHANNELS 3 Xrotation Yrotation Zrotation
                        JOINT lWrist
                        {
                            OFFSET   0.240000   0.000000   0.000000
                            CHANNELS 3 Xrotation Yrotation Zrotation
                            End Site
                            {
                                OFFSET   0.116353  -0.002500   0.000000
                            }
                        }
                    }
                }
            }
            JOINT rTorso_Clavicle
            {
                OFFSET  -0.001000   0.157500   0.000000
                CHANNELS 3 Xrotation Yrotation Zrotation
                JOINT rShoulder
                {
                    OFFSET  -0.117647   0.000000   0.000000
                    CHANNELS 3 Xrotation Yrotation Zrotation
                    JOINT rElbow
                    {
                        OFFSET  -0.245000   0.000000   0.000000
                        CHANNELS 3 Xrotation Yrotation Zrotation
                        JOINT rWrist
                        {
                            OFFSET  -0.240000   0.000000   0.000000
                            CHANNELS 3 Xrotation Yrotation Zrotation
                            End Site
                            {
                                OFFSET  -0.116353  -0.002500   0.000000
                            }
                        }
                    }
                }
            }
        }
    }
}
MOTION
Frames: 15
Frame Time:   0.016667
  2.663654   0.913704  -0.533102  11.122144   3.038900   2.200256  13.770844   1.661229  -8.491445   8.909164  -3.204777   0.657363  18.445972  -3.110687  -8.464121  -0.000002   0.000001  -0.000001 -39.408180  -2.550062   0.455523  35.226563   0.384259  -4.062368  -2.308334  -0.182123   1.414770  -0.000001  -0.000001  -0.000001   1.506180  -2.463348  -0.426833   5.860524  -9.827353  -2.084874 -18.073636   6.935452   0.417106  -0.079017  -2.329576  -9.872150  21.226985   1.258684 -64.374850 149.930863 -76.197040 129.339697  33.681046 -10.553090  44.978515   0.216411  -1.586868  12.524459  42.168619  -1.248741  55.810986  13.305609  71.168421  -9.924049  49.219581   8.679331  39.585423
  2.665254   0.916223  -0.479822  11.309216   3.800179   2.232992  15.544281   2.943547  -7.958406  10.408900  -3.810790   1.153136  20.373116  -4.049212 -11.909049   0.000002   0.000000  -0.000003 -38.503250  -3.165927   0.083356  25.712043   1.618129  -3.564490  -3.067312   0.536642   2.501981  -0.000002  -0.000001  -0.000001   1.431578  -2.686050  -0.351658   5.564429 -10.720957  -1.834297 -18.167091   7.536310   0.470037  -0.033321  -3.128975  -9.273829  22.241620   0.787403 -64.080252 152.209872 -75.186048 131.514006  34.280523 -10.465514  44.592414   0.218418  -1.682578  12.513806  42.529083  -2.269760  55.776309  13.359572  71.128795  -9.802307  46.631713  10.030159  37.403365
  2.666795   0.915023  -0.429112  11.166877   4.482800   2.228013  16.424870   3.848579  -7.467515  14.423008  -4.452186   1.751540  20.220465  -4.658214 -12.732577   0.000003   0.000002  -0.000002 -37.314607  -2.051116  -0.280727  17.863778   2.067114  -2.487653  -3.726619   0.603585   4.480467  -0.000002   0.000000  -0.000001   1.462720  -2.834389  -0.284933   5.700682 -11.324725  -1.581364 -18.277058   7.909428   0.384897  -0.000755  -3.679520  -8.930793  23.204191   0.159682 -63.747934 152.350291 -75.136308 131.702085  33.865085 -10.460697  43.945230   0.229044  -1.992566  12.614138  42.301443  -2.826622  55.486320  13.204809  70.980544  -9.651592  44.901665  10.912907  35.209680
  2.668311   0.912336  -0.379430  10.892808   5.134005   2.211244  16.945850   4.602306  -6.988918  19.451268  -5.061573   2.435060  19.251237  -5.109055 -12.521295   0.000002   0.000004   0.000001 -36.002434  -0.250004  -0.679023  10.684223   2.090198  -1.221678  -4.335502   0.392174   6.811076  -0.000000   0.000001  -0.000001   1.536208  -2.952889  -0.221380   6.011432 -11.811071  -1.323793 -18.392922   8.191715   0.244666   0.026041  -4.130559  -8.689873  24.148942  -0.527023 -63.392945 151.688671 -75.474918 131.149060  33.043262 -10.478877  43.193495   0.243982  -2.388234  12.758979  41.836339  -3.195029  55.089881  12.969895  70.788648  -9.492670  43.524442  11.628667  33.007724
  2.669776   0.905588  -0.330262  10.216371   5.304087   2.084891  16.589242   4.667220  -6.538040  26.797607  -5.063938   2.899777  17.501426  -5.124189 -11.861119   0.000001   0.000004   0.000001 -35.002139   1.376036  -0.669604   8.262038   1.416555  -0.417710  -4.420478  -0.037962   7.152858   0.000000   0.000002  -0.000001   1.727202  -2.893193  -0.126400   6.820379 -11.595372  -0.881527 -18.644462   8.142793  -0.111165   0.036873  -4.517173  -8.706116  24.844498  -0.850126 -63.510562 148.830380 -76.684954 128.475784  31.514333 -10.399679  41.542583   0.261321  -2.659551  13.032280  40.896432  -3.044122  54.459722  12.176759  70.177844  -9.114542  42.750183  11.704102  29.838534
  2.671228   0.897826  -0.281222   9.439422   5.355746   1.931286  16.014955   4.555285  -6.094194  34.718865  -4.875116   3.281044  15.555542  -5.053451 -11.085160   0.000000   0.000005  -0.000001 -34.083693   2.961236  -0.574912   7.038399   0.579394   0.254776  -4.376974  -0.519184   6.998119   0.000000   0.000004   0.000000   1.947365  -2.788606  -0.023956   7.749212 -11.197426  -0.400063 -18.930780   8.012852  -0.521442   0.042959  -4.887706  -8.786703  25.476270  -1.085559 -63.745718 144.731185 -78.065321 124.580199  29.813106 -10.248414  39.671071   0.280267  -2.899699  13.337795  39.841567  -2.752509  53.776520  11.285492  69.460346  -8.724016  42.118952  11.644760  26.425795
  2.672495   0.889560  -0.233001   8.517307   4.872771   1.273561  14.588136   4.432689  -5.295269  43.517224  -4.310873   3.084262  14.421273  -4.918244 -10.259169  -0.000001   0.000007  -0.000003 -33.955954   1.204276   0.652572  10.783854   1.120005  -0.273800  -0.703153   0.147670   6.242110   0.000001   0.000007   0.000000   2.226345  -2.515944   0.180621   8.948071 -10.132296   0.511541 -19.291823   7.752661  -0.949188   0.035556  -4.853551  -8.885706  25.790179  -1.383136 -64.375934 137.370034 -79.834176 117.562608  28.773552  -9.432636  37.612911   0.288648  -3.037774  13.437956  38.422618  -1.561297  52.933909  10.049730  68.337242  -8.265801  41.657241  10.947674  21.888788
  2.673665   0.880853  -0.185011   7.520827   4.222746   0.482981  12.927283   4.421284  -4.392954  52.541674  -3.736293   2.709922  13.458621  -4.781173  -9.420435  -0.000002   0.000008  -0.000004 -33.941241  -1.356312   2.162876  15.974574   1.963100  -1.127252   3.368882   1.031995   5.003908   0.000002   0.000011   0.000000   2.527964  -2.189727   0.410172  10.227984  -8.840279   1.508889 -19.706125   7.467050  -1.393089   0.023690  -4.688767  -8.998382  26.011987  -1.720673 -65.103307 126.103660 -81.505797 106.693682  28.027912  -8.415196  35.684293   0.294200  -3.125653  13.504124  36.929069  -0.106616  52.025622   8.796869  67.086229  -7.868550  41.179365  10.057152  16.998113
  2.674333   0.868991  -0.137267   6.201149   3.139106  -0.306021  11.022449   5.738024  -3.286416  61.654375  -3.402570   2.774984  12.198600  -4.719689  -8.594647   0.000002   0.000004  -0.000002 -33.635690  -3.582470   3.665528  23.096081   2.968781  -1.684204   2.245913   1.905358   1.087341   0.000000   0.000005  -0.000001   2.918975  -1.756711   0.646129  11.845870  -7.105861   2.516889 -20.451720   7.235447  -1.942996  -0.001079  -4.229538  -9.201964  26.136111  -2.281886 -65.820261 106.129772 -82.896344  87.313731  28.246422  -7.225948  35.345528   0.298616  -2.966621  13.743811  35.436122   1.579570  50.567595   7.545648  65.596462  -7.536220  40.639961   8.591668  11.328260
  2.674801   0.855865  -0.089621   4.740726   1.895844  -1.118135   8.980523   7.556006  -2.038726  70.799726  -3.115758   3.001112  10.819812  -4.701687  -7.774062   0.000006  -0.000002   0.000001 -33.183095  -5.665404   5.181086  31.000507   4.002495  -2.229354  -0.886585   3.031704  -3.839187  -0.000002  -0.000006  -0.000002   3.344314  -1.279773   0.882014  13.571200  -5.174394   3.483744 -21.330835   7.032360  -2.537351  -0.029001  -3.652433  -9.441522  26.215348  -2.932730 -66.532830  79.254081 -83.132029  61.110278  28.834346  -5.971752  35.626100   0.301356  -2.708811  14.052829  33.980970   3.389157  48.918090   6.353150  64.009821  -7.291847  39.945754   6.940688   5.351699
  2.675428   0.846767  -0.043401   3.881377   0.895364  -1.834435   5.241931   8.919028  -0.895964  78.697432  -2.978775   3.353519   9.167878  -4.647251  -5.540848   0.000009  -0.000007  -0.000001 -31.268707  -6.998846   6.200853  35.555130   4.687173  -2.779073  -5.078546   3.760782  -5.448984  -0.000002  -0.000007  -0.000002   3.693584  -0.853043   1.129731  14.977454  -3.431697   4.454008 -22.547563   6.918104  -3.228135  -0.091478  -3.021925 -10.421957  26.415323  -3.831859 -66.681133  52.617067 -81.679144  35.813543  30.197193  -4.558403  38.512543   0.306793  -2.079573  14.948401  32.425216   5.463324  46.176279   5.247912  62.365567  -7.331363  38.896738   5.041727  -0.960931
  2.676096   0.838675   0.002462   3.164701  -0.039810  -2.532483   1.051522  10.100585   0.294345  86.282347  -2.838679   3.730437   7.446514  -4.650455  -2.953800   0.000012  -0.000011  -0.000005 -28.976008  -8.114215   7.136265  39.277373   5.264641  -3.343933  -9.545648   4.404355  -6.195573   0.000000  -0.000005  -0.000002   4.022484  -0.437832   1.378774  16.281888  -1.720588   5.397586 -23.849195   6.839212  -3.944249  -0.151116  -2.376889 -11.586401  26.646845  -4.792935 -66.684946  35.446903 -79.015894  20.154685  31.669196  -3.022301  42.010401   0.301285  -1.357476  15.990203  30.934506   7.669546  43.197538   4.198215  60.708191  -7.482381  37.594475   3.190881  -7.377551
  2.677643   0.836036   0.046104   3.389730  -0.069390  -2.561498  -4.936306   9.728428   0.426479  91.496648  -2.486830   3.830787   6.117524  -4.518862  -1.619906   0.000011  -0.000010  -0.000004 -26.636508  -7.921532   7.014831  40.540562   5.200507  -3.067303 -12.959978   4.606004  -6.428053   0.000000  -0.000001  -0.000002   4.040982  -0.166173   1.437868  16.331801  -0.631356   5.594774 -24.120215   6.076215  -4.637533  -0.170120  -1.977033 -12.017270  28.081087  -5.043287 -66.668851  30.544727 -77.702677  15.980342  30.909194  -2.521947  44.493196   0.263635  -0.596288  16.184712  28.356363   7.840212  42.573803   4.598039  61.555362  -7.575907  34.093368   2.317371 -10.899993
  2.679398   0.835196   0.089274   3.849851   0.116906  -2.406007 -11.337061   9.029519   0.193990  95.831713  -2.078341   3.844380   4.925602  -4.347882  -0.638725   0.000010  -0.000006  -0.000000 -24.197534  -7.430234   6.609242  41.007006   4.998219  -2.602179 -15.977525   4.688916  -6.518023   0.000000   0.000004  -0.000002   3.976904   0.078961   1.440853  16.050213   0.335580   5.577759 -24.098252   5.086290  -5.300210  -0.177734  -1.624863 -12.212738  29.852317  -5.062746 -66.610188  28.345620 -76.966618  14.187979  29.689245  -2.431668  46.669466   0.223093   0.110895  16.121881  25.438196   7.364916  42.644948   5.557867  63.217219  -7.716411  30.116432   1.946889 -13.604480
  2.681050   0.838721   0.133282   4.293388   0.202956  -2.082404 -17.531661   8.666639  -0.209996  97.310393  -1.571793   3.919277   4.146522  -4.053080  -0.079370   0.000004   0.000000   0.000003 -20.850232  -7.038760   6.237706  39.653305   4.913011  -2.432968 -17.650421   4.722275  -6.431616   0.000000   0.000004  -0.000002   3.861043   0.420049   1.352322  15.552673   1.668503   5.195038 -23.634554   3.557880  -5.716625  -0.167337  -1.135212 -11.887345  31.982226  -4.547229 -66.199198  31.457020 -77.865434  16.457187  29.383417  -3.289471  48.211340   0.212622   0.180010  15.598481  22.013431   5.568601  43.930603   8.448547  66.764768  -8.417437  26.809785   2.745894 -15.054330
